<svg width="43" height="46" viewBox="0 0 43 46" fill="none" xmlns="http://www.w3.org/2000/svg">
<path d="M21.5 0.0996094C32.4905 0.0996094 41.4004 9.00953 41.4004 20C41.4004 30.9905 32.4905 39.9004 21.5 39.9004C10.5095 39.9004 1.59961 30.9905 1.59961 20C1.59961 9.00953 10.5095 0.0996095 21.5 0.0996094Z" fill="#FFD700" stroke="white" stroke-width="0.2"/>
<g filter="url(#filter0_d_21_20)">
<circle cx="21.5" cy="20" r="17.5" fill="#00FF60"/>
<circle cx="21.5" cy="20" r="17.35" stroke="white" stroke-width="0.3"/>
</g>
<g filter="url(#filter1_i_21_20)">
<path d="M30.381 27.883C30.381 35.3704 7.52024 2.36349 16.6326 13.2093C32.7789 17.3562 28.4626 40.1642 31.5 18.1704C31.5 10.6829 6.25024 24.055 13.755 24.055C8.79917 37.6123 11.0373 16.8777 30.381 27.883Z" fill="#0066FF"/>
</g>
<defs>
<filter id="filter0_d_21_20" x="0" y="2.5" width="43" height="43" filterUnits="userSpaceOnUse" color-interpolation-filters="sRGB">
<feFlood flood-opacity="0" result="BackgroundImageFix"/>
<feColorMatrix in="SourceAlpha" type="matrix" values="0 0 0 0 0 0 0 0 0 0 0 0 0 0 0 0 0 0 127 0" result="hardAlpha"/>
<feOffset dy="4"/>
<feGaussianBlur stdDeviation="2"/>
<feComposite in2="hardAlpha" operator="out"/>
<feColorMatrix type="matrix" values="0 0 0 0 0 0 0 0 0 0 0 0 0 0 0 0 0 0 0.25 0"/>
<feBlend mode="normal" in2="BackgroundImageFix" result="effect1_dropShadow_21_20"/>
<feBlend mode="normal" in="SourceGraphic" in2="effect1_dropShadow_21_20" result="shape"/>
</filter>
<filter id="filter1_i_21_20" x="11.5" y="11" width="20" height="20" filterUnits="userSpaceOnUse" color-interpolation-filters="sRGB">
<feFlood flood-opacity="0" result="BackgroundImageFix"/>
<feBlend mode="normal" in="SourceGraphic" in2="BackgroundImageFix" result="shape"/>
<feColorMatrix in="SourceAlpha" type="matrix" values="0 0 0 0 0 0 0 0 0 0 0 0 0 0 0 0 0 0 127 0" result="hardAlpha"/>
<feMorphology radius="27" operator="erode" in="SourceAlpha" result="effect1_innerShadow_21_20"/>
<feOffset dy="2"/>
<feGaussianBlur stdDeviation="2"/>
<feComposite in2="hardAlpha" operator="arithmetic" k2="-1" k3="1"/>
<feColorMatrix type="matrix" values="0 0 0 0 0 0 0 0 0 0 0 0 0 0 0 0 0 0 0.25 0"/>
<feBlend mode="normal" in2="shape" result="effect1_innerShadow_21_20"/>
</filter>
</defs>
</svg>
